<svg width="20" height="19" viewBox="0 0 20 19" version="1.1" xmlns="http://www.w3.org/2000/svg" xmlns:xlink="http://www.w3.org/1999/xlink">
<title>&#239;&#128;&#130;</title>
<desc>Created using Figma</desc>
<g id="Canvas" transform="translate(9678 495)">
<g id="&#239;&#128;&#130;">
<use xlink:href="#path0_fill" transform="translate(-9692 -510)" fill="#828282"/>
</g>
</g>
<defs>
<path id="path0_fill" d="M 27.57 23.1429C 27.57 25.8996 25.3267 28.1429 22.57 28.1429C 19.8133 28.1429 17.57 25.8996 17.57 23.1429C 17.57 20.3862 19.8133 18.1429 22.57 18.1429C 25.3267 18.1429 27.57 20.3862 27.57 23.1429ZM 33.2843 32.4286C 33.2843 32.0491 33.1281 31.6808 32.8714 31.4241L 29.0432 27.596C 29.9473 26.2902 30.4272 24.7277 30.4272 23.1429C 30.4272 18.8013 26.9116 15.2857 22.57 15.2857C 18.2285 15.2857 14.7129 18.8013 14.7129 23.1429C 14.7129 27.4844 18.2285 31 22.57 31C 24.1549 31 25.7174 30.5201 27.0232 29.6161L 30.8513 33.433C 31.108 33.7009 31.4763 33.8571 31.8557 33.8571C 32.637 33.8571 33.2843 33.2098 33.2843 32.4286Z"/>
</defs>
</svg>
